<svg width="400" height="300" xmlns="http://www.w3.org/2000/svg">
  <!-- Background -->
  <rect width="400" height="300" fill="#f8f4e6"/>
  
  <!-- Coffee storage shelves -->
  <rect x="50" y="80" width="300" height="15" fill="#8B4513"/>
  <rect x="50" y="120" width="300" height="15" fill="#8B4513"/>
  <rect x="50" y="160" width="300" height="15" fill="#8B4513"/>
  
  <!-- Array of coffee jars -->
  <!-- Top shelf - String array -->
  <rect x="70" y="60" width="30" height="40" fill="#DEB887" rx="3"/>
  <text x="85" y="80" text-anchor="middle" font-family="Arial, sans-serif" font-size="8" fill="#333">Arabica</text>
  <text x="85" y="110" text-anchor="middle" font-family="Arial, sans-serif" font-size="6" fill="#666">[0]</text>
  
  <rect x="120" y="60" width="30" height="40" fill="#DEB887" rx="3"/>
  <text x="135" y="80" text-anchor="middle" font-family="Arial, sans-serif" font-size="8" fill="#333">Robusta</text>
  <text x="135" y="110" text-anchor="middle" font-family="Arial, sans-serif" font-size="6" fill="#666">[1]</text>
  
  <rect x="170" y="60" width="30" height="40" fill="#DEB887" rx="3"/>
  <text x="185" y="77" text-anchor="middle" font-family="Arial, sans-serif" font-size="7" fill="#333">Liberica</text>
  <text x="185" y="110" text-anchor="middle" font-family="Arial, sans-serif" font-size="6" fill="#666">[2]</text>
  
  <rect x="220" y="60" width="30" height="40" fill="#DEB887" rx="3"/>
  <text x="235" y="77" text-anchor="middle" font-family="Arial, sans-serif" font-size="7" fill="#333">Excelsa</text>
  <text x="235" y="110" text-anchor="middle" font-family="Arial, sans-serif" font-size="6" fill="#666">[3]</text>
  
  <!-- Middle shelf - Number array -->
  <circle cx="85" cy="130" r="12" fill="#F4A460"/>
  <text x="85" y="135" text-anchor="middle" font-family="Arial, sans-serif" font-size="8" fill="#333">2.50</text>
  <text x="85" y="150" text-anchor="middle" font-family="Arial, sans-serif" font-size="6" fill="#666">[0]</text>
  
  <circle cx="135" cy="130" r="12" fill="#F4A460"/>
  <text x="135" y="135" text-anchor="middle" font-family="Arial, sans-serif" font-size="8" fill="#333">4.00</text>
  <text x="135" y="150" text-anchor="middle" font-family="Arial, sans-serif" font-size="6" fill="#666">[1]</text>
  
  <circle cx="185" cy="130" r="12" fill="#F4A460"/>
  <text x="185" y="135" text-anchor="middle" font-family="Arial, sans-serif" font-size="8" fill="#333">4.50</text>
  <text x="185" y="150" text-anchor="middle" font-family="Arial, sans-serif" font-size="6" fill="#666">[2]</text>
  
  <circle cx="235" cy="130" r="12" fill="#F4A460"/>
  <text x="235" y="135" text-anchor="middle" font-family="Arial, sans-serif" font-size="8" fill="#333">3.00</text>
  <text x="235" y="150" text-anchor="middle" font-family="Arial, sans-serif" font-size="6" fill="#666">[3]</text>
  
  <!-- Bottom shelf - Boolean array -->
  <rect x="75" y="165" width="20" height="15" fill="#4CAF50" rx="2"/>
  <text x="85" y="175" text-anchor="middle" font-family="Arial, sans-serif" font-size="7" fill="#FFF">true</text>
  <text x="85" y="190" text-anchor="middle" font-family="Arial, sans-serif" font-size="6" fill="#666">[0]</text>
  
  <rect x="125" y="165" width="20" height="15" fill="#F44336" rx="2"/>
  <text x="135" y="175" text-anchor="middle" font-family="Arial, sans-serif" font-size="6" fill="#FFF">false</text>
  <text x="135" y="190" text-anchor="middle" font-family="Arial, sans-serif" font-size="6" fill="#666">[1]</text>
  
  <rect x="175" y="165" width="20" height="15" fill="#4CAF50" rx="2"/>
  <text x="185" y="175" text-anchor="middle" font-family="Arial, sans-serif" font-size="7" fill="#FFF">true</text>
  <text x="185" y="190" text-anchor="middle" font-family="Arial, sans-serif" font-size="6" fill="#666">[2]</text>
  
  <rect x="225" y="165" width="20" height="15" fill="#4CAF50" rx="2"/>
  <text x="235" y="175" text-anchor="middle" font-family="Arial, sans-serif" font-size="7" fill="#FFF">true</text>
  <text x="235" y="190" text-anchor="middle" font-family="Arial, sans-serif" font-size="6" fill="#666">[3]</text>
  
  <!-- Shelf labels -->
  <text x="30" y="75" text-anchor="middle" font-family="Arial, sans-serif" font-size="8" fill="#8B4513" font-weight="bold">Noms</text>
  <text x="30" y="135" text-anchor="middle" font-family="Arial, sans-serif" font-size="8" fill="#8B4513" font-weight="bold">Prix</text>
  <text x="25" y="175" text-anchor="middle" font-family="Arial, sans-serif" font-size="7" fill="#8B4513" font-weight="bold">Dispo</text>
  
  <!-- Organizer character -->
  <circle cx="320" cy="120" r="25" fill="#FFDBAC"/>
  <circle cx="315" cy="115" r="2" fill="#333"/>
  <circle cx="325" cy="115" r="2" fill="#333"/>
  <path d="M315 125 Q320 130 325 125" stroke="#333" stroke-width="2" fill="none"/>
  <rect x="310" y="145" width="20" height="35" fill="#87CEEB"/>
  
  <!-- Clipboard -->
  <rect x="280" y="100" width="15" height="20" fill="#DDD" rx="2"/>
  <line x1="285" y1="105" x2="290" y2="105" stroke="#333" stroke-width="1"/>
  <line x1="285" y1="110" x2="290" y2="110" stroke="#333" stroke-width="1"/>
  <line x1="285" y1="115" x2="290" y2="115" stroke="#333" stroke-width="1"/>
  
  <!-- Title -->
  <text x="200" y="25" text-anchor="middle" font-family="Arial, sans-serif" font-size="16" fill="#8B4513" font-weight="bold">Collections et Tableaux</text>
  <text x="200" y="245" text-anchor="middle" font-family="Arial, sans-serif" font-size="12" fill="#666">Organiser l'inventaire de votre café</text>
  <text x="200" y="265" text-anchor="middle" font-family="Arial, sans-serif" font-size="10" fill="#999">string[] • double[] • bool[]</text>
</svg>